<svg width="198" height="40" viewBox="0 0 198 40" fill="none" xmlns="http://www.w3.org/2000/svg">
<path d="M32.609 7.40595H36.3997V32.5513H32.609V21.0609H18.9003V32.5513H15.1312V7.40595H18.9003V18.4656H32.609V7.40595ZM0.216309 7.40595H3.97463V32.5513H0.216309V7.40595ZM63.3541 20.447H67.1555V30.9144C65.4433 31.4097 62.2988 32.9605 58.2282 32.9605C50.0223 32.9605 44.4009 27.533 44.4009 20.0486C44.4009 13.2104 49.6023 6.98596 58.1528 6.98596C61.685 6.98596 65.0664 7.78286 66.2833 8.08439V12.4565H66.0894C64.3772 10.3243 62.0619 8.42899 58.002 8.42899C52.1114 8.42899 48.5793 13.5227 48.5793 19.7148C48.5793 26.2838 52.6068 31.4851 58.4974 31.4851C60.5112 31.4851 62.2988 30.9144 63.3541 30.1929V20.447Z" fill="#fff"/>
<path d="M92.2585 15.7195V5.4783H91.1278C91.1278 7.90129 89.7709 11.6812 87.7787 14.8795C85.5495 18.4548 83.0619 20.5009 80.9512 20.5009V21.6316C85.5495 21.6316 88.8017 20.4039 91.1278 18.5086V35.7603H92.2585V17.4533C93.96 15.6441 95.0261 13.4149 95.6938 11.0781V39.9171H96.8245V0.0507812H95.6938C95.6938 6.08135 95.1231 11.8427 92.2585 15.7087V15.7195ZM91.1278 17.0225C89.5447 18.584 87.434 19.6932 84.6341 20.1993C86.0448 19.144 87.4448 17.5502 88.7371 15.4826C89.7063 13.9319 90.5247 12.2411 91.1278 10.6043V17.0225Z" fill="#fff"/>
<path d="M112.633 12.1766V12.0689C112.633 9.40895 115.056 7.30902 118.793 7.30902C122.53 7.30902 124.953 9.40894 124.953 12.0473V12.155C124.953 14.8042 122.53 16.9256 118.825 16.9256C115.121 16.9256 112.622 14.8042 112.622 12.1766H112.633ZM123.693 12.1335V12.0258C123.693 9.93663 121.894 8.23514 118.804 8.23514C115.713 8.23514 113.915 9.8397 113.915 12.0473V12.155C113.915 14.4057 115.939 15.9564 118.847 15.9564C121.754 15.9564 123.704 14.3842 123.704 12.1227L123.693 12.1335Z" fill="#fff"/>
<path d="M127.689 7.42749H129.304L136.067 15.3964V7.42749H137.23V16.8072H135.808L128.841 8.53668V16.8072H127.678V7.42749H127.689Z" fill="#fff"/>
<path d="M140.59 7.42749H148.484V8.37516H141.807V11.5304H147.428V12.4781H141.807V15.8595H148.796V16.8072H140.59V7.42749Z" fill="#fff"/>
<path d="M113.312 23.1716H117.771C119.86 23.1716 121.615 23.9469 121.615 25.9284V25.9822C121.615 27.6083 120.237 28.4268 118.923 28.6529L122.358 32.5513H120.894L117.534 28.7498H114.529V32.5513H113.312V23.1716ZM117.846 27.8237C119.407 27.8237 120.387 27.1776 120.387 25.993V25.9392C120.387 24.6038 119.321 24.1085 117.846 24.1085H114.529V27.8345H117.846V27.8237Z" fill="#fff"/>
<path d="M124.996 23.1716H132.89V24.1192H126.213V27.2745H131.834V28.2222H126.213V31.6036H133.202V32.5513H124.996V23.1716Z" fill="#fff"/>
<path d="M135.227 23.1716H136.476L139.243 31.0975L142.474 23.1716H143.336L146.491 31.119L149.366 23.1716H150.508L147.072 32.5513H145.92L142.894 24.8407L139.717 32.5513H138.576L135.227 23.1716Z" fill="#fff"/>
<path d="M155.762 23.1716H157.388L161.857 32.5513H160.597L159.326 29.859H153.673L152.37 32.5513H151.239L155.751 23.1716H155.762ZM154.125 28.9437H158.895L156.537 23.9577L154.125 28.9437Z" fill="#fff"/>
<path d="M164.464 23.1716H168.923C171.012 23.1716 172.767 23.9469 172.767 25.9284V25.9822C172.767 27.6083 171.389 28.4268 170.075 28.6529L173.51 32.5513H172.046L168.686 28.7498H165.681V32.5513H164.464V23.1716ZM168.998 27.8237C170.56 27.8237 171.54 27.1776 171.54 25.993V25.9392C171.54 24.6038 170.473 24.1085 168.998 24.1085H165.681V27.8345H168.998V27.8237Z" fill="#fff"/>
<path d="M176.148 23.1715H180.413C184.44 23.1715 186.389 25.1638 186.389 27.7698V27.8883C186.389 30.4836 184.516 32.5404 180.37 32.5404H176.148V23.1608V23.1715ZM180.327 31.6036C183.557 31.6036 185.13 30.1605 185.13 27.8775V27.7698C185.13 25.6053 183.708 24.0977 180.316 24.0977H177.365V31.6036H180.327Z" fill="#fff"/>
<path d="M188.671 29.6867H189.867C190.06 30.839 190.944 31.7328 193.442 31.7328C195.445 31.7328 196.576 31.0544 196.576 29.9129C196.576 28.7714 195.746 28.4591 193.183 28.1575C190.599 27.856 189.156 27.2422 189.156 25.5622C189.156 24.1192 190.664 23.0531 193.13 23.0531C195.596 23.0531 197.125 23.9146 197.383 25.6376H196.263C195.973 24.4208 194.95 23.99 193.13 23.99C191.148 23.99 190.297 24.593 190.297 25.5407C190.297 26.3807 190.911 26.8653 193.539 27.1668C196.296 27.4791 197.76 28.0283 197.76 29.8806C197.76 31.5067 196.156 32.6697 193.442 32.6697C190.297 32.6697 188.908 31.3451 188.671 29.6975V29.6867Z" fill="#fff"/>
</svg>
