<svg width="591" height="635" viewBox="0 0 591 635" fill="none" xmlns="http://www.w3.org/2000/svg">
<g clip-path="url(#clip0_48_5)">
<path d="M185.676 168.84C185.676 184.709 174.185 196.611 147.507 196.611H113.58V196.338C118.368 188.677 119.326 184.299 119.326 174.175V118.906C119.326 108.645 118.368 104.404 113.58 96.7433V96.4697C130.954 96.4697 137.247 95.9224 147.234 95.9224C175.963 95.7856 180.888 109.466 180.888 119.863C180.888 131.629 174.321 140.795 162.556 143.804C179.52 145.993 185.676 157.075 185.676 168.84ZM130.817 142.026H150.107C164.198 141.889 169.26 131.902 169.26 120.821C169.26 107.551 161.051 100.984 145.866 100.984C139.846 100.984 134.921 101.395 130.817 102.079V142.026ZM146.413 191.55C164.745 191.55 173.227 182.52 173.227 169.524C173.227 156.39 166.113 147.088 151.475 147.088H130.817V190.181C135.195 190.865 140.394 191.55 146.413 191.55ZM240.427 196.611H219.359V196.338C225.242 190.045 227.431 185.804 232.219 172.67L260.538 95.2384H265.736L294.192 173.354C299.254 187.035 301.716 191.002 306.778 196.338V196.611H281.879V196.338C284.889 192.781 286.668 185.393 282.016 172.807L277.502 160.221H242.479L239.196 169.387C233.724 184.299 236.87 192.234 240.427 196.338V196.611ZM244.395 155.159H275.586L259.99 112.202L244.395 155.159ZM363.239 118.359V192.234L388.959 191.276C398.672 190.865 405.922 181.836 413.173 169.661L415.225 170.481L408.659 196.611H345.454V196.338C350.79 187.856 351.884 183.204 351.884 171.986V118.359C351.884 108.372 350.79 104.268 346.002 96.7433V96.4697H369.259V96.7433C364.334 104.268 363.239 108.372 363.239 118.359ZM454.044 196.611L454.181 196.338C458.969 188.813 459.926 184.709 459.926 174.722V118.359C459.926 108.372 458.969 104.268 454.044 96.7433V96.4697H477.301V96.7433C472.376 104.268 471.418 108.372 471.418 118.359V174.722C471.418 184.709 472.513 188.813 477.301 196.338V196.611H454.044ZM203.731 326.82L200.585 352.403C196.754 355.276 181.158 362.663 163.374 362.663C131.908 362.663 112.619 339.68 112.619 310.404C112.619 281.264 134.097 258.418 166.247 258.418C180.201 258.418 193.06 262.248 200.038 265.121L203.184 288.652L201.132 289.199C190.324 271.14 181.432 263.89 164.879 263.89C137.928 263.89 125.752 283.727 125.752 310.404C125.752 337.218 137.654 357.191 163.51 357.191C183.21 357.191 193.608 345.152 201.679 326.273L203.731 326.82ZM273.613 360.611H252.545V360.338C258.428 354.045 260.617 349.804 265.405 336.67L293.724 259.238H298.922L327.378 337.354C332.44 351.035 334.902 355.002 339.964 360.338V360.611H315.065V360.338C318.075 356.781 319.854 349.393 315.202 336.807L310.688 324.221H275.665L272.382 333.387C266.91 348.299 270.056 356.234 273.613 360.338V360.611ZM277.581 319.159H308.772L293.177 276.202L277.581 319.159ZM464.691 361.022L400.393 276.613L400.94 335.85C401.077 347.068 402.581 351.582 410.379 360.338V360.611H387.806V360.338C394.236 351.582 395.468 347.068 395.468 335.85V274.971C393.279 268.678 389.858 264.574 384.249 260.743V260.47H402.034L464.007 340.911L463.597 285.231C463.46 274.013 462.092 269.499 454.704 260.743V260.47H476.73V260.743C470.437 269.499 468.932 274.013 468.932 285.231V360.611L464.691 361.022ZM208.127 512.572C201.56 516.95 189.111 526.663 167.222 526.663C134.525 526.663 114.278 503.817 114.278 474.54C114.278 445.401 134.936 422.418 169.548 422.418C185.007 422.418 197.456 426.385 204.57 428.984L207.716 451.968L205.664 452.515C195.814 435.14 185.143 427.89 167.906 427.89C140.271 427.89 127.411 448 127.411 474.677C127.411 501.218 138.356 521.191 167.359 521.191C184.186 521.191 197.593 515.035 197.593 498.892C197.593 491.094 196.088 485.759 190.889 478.781V478.508H214.009V478.781C209.221 486.169 208.127 490.684 208.127 500.944V512.572ZM345.039 512.572C338.472 516.95 326.023 526.663 304.134 526.663C271.438 526.663 251.191 503.817 251.191 474.54C251.191 445.401 271.848 422.418 306.46 422.418C321.919 422.418 334.368 426.385 341.482 428.984L344.629 451.968L342.577 452.515C332.727 435.14 322.056 427.89 304.818 427.89C277.184 427.89 264.324 448 264.324 474.677C264.324 501.218 275.268 521.191 304.271 521.191C321.098 521.191 334.505 515.035 334.505 498.892C334.505 491.094 333 485.759 327.802 478.781V478.508H350.922V478.781C346.134 486.169 345.039 490.684 345.039 500.944V512.572ZM433.538 526.663C413.291 526.663 396.191 516.677 396.191 492.052V446.359C396.191 436.372 395.233 432.268 390.308 424.743V424.47H413.565V424.743C409.05 431.584 407.545 436.372 407.545 446.359V491.641C407.545 513.393 419.721 521.191 435.18 521.191C456.111 521.191 462.678 506.553 462.678 490.41V449.231C462.678 438.013 461.036 433.499 453.102 424.743V424.47H476.222L476.495 424.743C469.518 433.499 468.013 438.013 468.013 449.231V490.273C468.013 509.836 459.532 526.663 433.538 526.663Z" fill="white"/>
<rect x="5.47222" y="5.47222" width="580.056" height="623.833" stroke="white" stroke-width="10.9444"/>
</g>
<defs>
<clipPath id="clip0_48_5">
<rect width="591" height="634.778" fill="white"/>
</clipPath>
</defs>
</svg>
