<svg width="27" height="27" viewBox="0 0 27 27" fill="none" xmlns="http://www.w3.org/2000/svg">
<path d="M8.325 7.875H5.175C4.80221 7.875 4.5 8.17721 4.5 8.55V18.45C4.5 18.8228 4.80221 19.125 5.175 19.125H8.325C8.69779 19.125 9 18.8228 9 18.45V8.55C9 8.17721 8.69779 7.875 8.325 7.875Z" stroke="white" stroke-width="0.6" stroke-linecap="round" stroke-linejoin="round"/>
<path d="M21.825 7.875H18.675C18.3022 7.875 18 8.17721 18 8.55V18.45C18 18.8228 18.3022 19.125 18.675 19.125H21.825C22.1978 19.125 22.5 18.8228 22.5 18.45V8.55C22.5 8.17721 22.1978 7.875 21.825 7.875Z" stroke="white" stroke-width="0.6" stroke-linecap="round" stroke-linejoin="round"/>
<path d="M1.125 16.2V10.8C1.125 10.4272 1.42721 10.125 1.8 10.125H3.825C4.19779 10.125 4.5 10.4272 4.5 10.8V16.2C4.5 16.5728 4.19779 16.875 3.825 16.875H1.8C1.42721 16.875 1.125 16.5728 1.125 16.2Z" stroke="white" stroke-width="0.6" stroke-linecap="round" stroke-linejoin="round"/>
<path d="M25.875 16.2V10.8C25.875 10.4272 25.5728 10.125 25.2 10.125H23.175C22.8022 10.125 22.5 10.4272 22.5 10.8V16.2C22.5 16.5728 22.8022 16.875 23.175 16.875H25.2C25.5728 16.875 25.875 16.5728 25.875 16.2Z" stroke="white" stroke-width="0.6" stroke-linecap="round" stroke-linejoin="round"/>
<path d="M9 13.5H18" stroke="white" stroke-width="0.6" stroke-linecap="round" stroke-linejoin="round"/>
</svg>
